<svg id="Capa_1" enable-background="new 0 0 512 512" height="512" viewBox="0 0 512 512" width="512" xmlns="http://www.w3.org/2000/svg"><g><g><path clip-rule="evenodd" d="m105.343 202.577c-11.963 44.321 14.27 89.952 58.59 101.915 39.392 10.624 79.781-8.887 96.7-44.463 10.738-33.753 6.694-52.239.37-70.127-.171-.798-.712-2.165-.798-2.307-6.038-12.305-15.068-23.043-26.432-31.133-7.804-5.554-16.72-9.827-26.518-12.476-7.975-2.165-15.979-3.076-23.84-2.877-35.803.94-68.274 25.123-78.072 61.468z" fill="#ffe07d" fill-rule="evenodd"/></g><g><path clip-rule="evenodd" d="m329.448 211.749c20.223-14.156 45.829-17.916 65.369-49.619 8.232-13.33 18.913-22.104 35.148-30.734l-2.136-54.881-40.816-25.871c-42.212 22.417-47.367 28.712-93.254 34.181-41.528 4.956-81.69 3.105-103.821 44.207l-6.523 12.077c-1.517 16.636 10.286 20.452 18.261 22.617 9.798 2.649 18.937 2.492 32.097-7.264 5.44-9.371 11.479-22.388 48.193-16.264 13.757 2.307 19.368 8.403 11.08 18.144l-32.043 31.56-6.266 6.181c-13.814 13.587-21.733 41.045-15.409 52.923 5.07 9.514 13.131 12.049 22.017 9.001 2.222-.741 4.472-1.851 6.75-3.247z" fill="#ffe4c1" fill-rule="evenodd"/></g><g><path clip-rule="evenodd" d="m159.119 145.439c32.442 16.435 54.317 47.34 54.317 82.774 0 31.873-17.688 60.101-44.832 77.419 37.854 7.947 75.794-11.422 92.029-45.603.171-.313.57-1.709.712-2.022-8.887 3.048-16.947.513-22.017-9.001-6.323-11.878 1.595-39.336 15.409-52.923l6.266-6.181c-.171-.798-.712-2.165-.798-2.307-6.038-12.277-15.068-23.043-26.432-31.133-7.804-5.554-16.72-9.827-26.518-12.476-7.975-2.165-15.979-3.076-23.84-2.877-8.374.228-16.548 1.709-24.296 4.33z" fill="#ffd064" fill-rule="evenodd"/></g><g><path clip-rule="evenodd" d="m319.365 192.807-61.353 42.982c-2.279 1.424-4.529 2.507-6.75 3.276-5.127 1.738-9.969 1.624-14.128-.598.028 4.13.712 7.748 2.193 10.539 5.07 9.514 13.131 12.049 22.017 9.001 2.222-.741 4.472-1.851 6.75-3.247l61.353-43.011c20.223-14.156 45.829-17.916 65.369-49.619 8.232-13.33 18.913-22.104 35.148-30.734l-10.083-18.97c-16.235 8.631-26.917 17.432-35.148 30.734-19.539 31.703-45.145 35.462-65.368 49.647z" fill="#f1d0a5" fill-rule="evenodd"/></g><g><path clip-rule="evenodd" d="m387.012 50.644 32.87 61.782 10.083 18.97 7.947 14.954c3.247 6.096 10.881 8.431 17.004 5.184l34.806-18.515c6.124-3.247 8.46-10.909 5.212-17.005l-54.117-101.8c-3.247-6.096-10.909-8.431-17.004-5.184l-34.835 18.515c-6.095 3.247-8.431 10.909-5.184 17.005z" fill="#c3ddff" fill-rule="evenodd"/></g><g><path clip-rule="evenodd" d="m480.34 113.605-34.915 18.572c-6.143 3.257-13.8.914-17.058-5.2l2.143 4.029 7.972 15.001c3.257 6.115 10.915 8.458 17.058 5.2l34.915-18.572c6.143-3.257 8.486-10.943 5.229-17.058l-10.086-18.972c3.199 6.114.856 13.771-5.258 17z" fill="#9dc6fb" fill-rule="evenodd"/></g><g><path clip-rule="evenodd" d="m281.255 441.073 74.597-10.34 38.908-31.873c2.877-1.111 5.782-2.165 8.687-3.247 9.342-3.304 14.299-13.672 10.994-23.015-3.333-9.371-13.7-14.299-23.442-10.852l-43.294 16.15-78.414 29.224c-2.62 15.182.457 33.981 11.964 33.953z" fill="#f1d0a5" fill-rule="evenodd"/></g><g><path clip-rule="evenodd" d="m216.199 388.833 36.743-4.472 11.792-13.644c8.403-3.276 12.76-12.761 9.741-21.334-3.105-8.745-12.789-13.359-21.903-10.112l-86.788 32.158 8.516 16.606z" fill="#f1d0a5" fill-rule="evenodd"/></g><g><path clip-rule="evenodd" d="m269.292 407.12 51.184-10.881 27.23-18.344c6.978-4.387 10.282-13.217 7.434-21.306-3.333-9.371-13.672-14.299-23.442-10.824l-66.964 24.952c-.171.085-.37.142-.541.199l-47.994 17.916 14.498 20.594z" fill="#f1d0a5" fill-rule="evenodd"/></g><g><path clip-rule="evenodd" d="m216.199 388.833 47.994-17.916.541-.199c8.403-3.276 12.76-12.761 9.741-21.334-1.396-3.931-4.13-7.036-7.52-8.944.57 7.235-3.646 14.327-10.653 17.062l-.541.199-59.644 24.211z" fill="#e5c093" fill-rule="evenodd"/></g><g><path clip-rule="evenodd" d="m269.292 407.12 78.414-29.224c6.978-4.387 10.282-13.217 7.434-21.306-2.592-7.32-9.513-11.935-17.061-11.935.655 1.054 1.225 2.222 1.652 3.447 2.848 8.089.911 11.507-6.067 15.894l-90.918 33.981z" fill="#e5c093" fill-rule="evenodd"/></g><g><path clip-rule="evenodd" d="m281.255 441.073c38.025-14.128 76.05-28.626 114.16-42.469l8.032-2.991c9.342-3.304 14.299-13.672 10.994-23.015-1.937-5.469-6.266-9.428-11.479-11.08 2.62 9.058-2.62 16.606-11.65 19.796-35.946 13.359-71.92 27.458-107.866 40.817.142.513.285.997.399 1.51.883 4.073.769 8.232-.313 12.049-.54 1.879-1.28 3.702-2.277 5.383z" fill="#e5c093" fill-rule="evenodd"/></g><g><path clip-rule="evenodd" d="m149.122 487.445 45.345 13.558c16.093 4.785 43.408 4.557 59.131-.313 23.328-7.206 60.498-21.42 74.227-27.003l90.434-36.801c11.365-4.643 13.729-20.309 7.263-30.763-6.323-10.283-18.799-11.621-30.107-7.52l-.655.256-113.505 42.213c6.978-11.935 2.165-29.623-11.963-33.953l-103.508-35.69c-25.549-8.802-33.411-20.793-85.392-1.367l-31.246 55.601 31.246 50.616c27.401.427 40.076 2.592 68.73 11.166z" fill="#ffe4c1" fill-rule="evenodd"/></g><g><path clip-rule="evenodd" d="m80.392 476.279c27.401.427 40.076 2.592 68.73 11.166l45.345 13.558c16.093 4.785 43.408 4.557 59.131-.313 23.328-7.206 60.498-21.42 74.227-27.003l90.434-36.801c11.365-4.643 13.729-20.309 7.263-30.763-.085-.142-.171-.285-.256-.427-1.737 2.393-4.073 4.301-7.007 5.497l-90.434 36.83c-13.729 5.583-50.899 19.796-74.227 27.003-15.723 4.871-43.038 5.099-59.131.285l-45.345-13.53c-28.654-8.574-41.329-10.738-68.73-11.166v2.649 17.347z" fill="#f1d0a5" fill-rule="evenodd"/></g><g><path clip-rule="evenodd" d="m80.392 470.611v-99.038-8.317c0-6.922-5.668-12.618-12.618-12.618h-39.563c-6.95 0-12.618 5.668-12.618 12.618v115.673c0 6.95 5.668 12.618 12.618 12.618h39.563c6.921 0 12.618-5.668 12.618-12.618z" fill="#eceaed" fill-rule="evenodd"/></g><g><path clip-rule="evenodd" d="m28.211 491.546h39.563c6.921 0 12.618-5.668 12.618-12.618v-2.649-5.668-17.347-2.649c0 6.922-5.697 12.618-12.618 12.618h-39.563c-6.921 0-12.618-5.668-12.618-12.59v28.284c0 6.951 5.668 12.619 12.618 12.619z" fill="#dad8db" fill-rule="evenodd"/></g><g><path d="m419.586 391.392c3.606-6.259 4.57-13.994 1.976-21.327-4.73-13.298-19.57-20.226-33.083-15.445-.04.014-.079.028-.119.043l-24.724 9.217c.179-3.273-.243-6.608-1.375-9.824-2.302-6.475-7.003-11.641-13.234-14.547-6.22-2.901-13.275-3.209-19.861-.865-.036.013-.072.026-.107.039l-46.074 17.18c.111-3.028-.345-6.076-1.387-9.01-2.169-6.108-6.594-11.008-12.461-13.796-5.98-2.843-12.764-3.163-19.189-.873l-84.202 31.2c-3.249-1.198-6.256-2.444-9.172-3.659-18.913-7.883-32.974-12.245-68.988-.225-1.766-9.335-9.97-16.422-19.811-16.422h-39.564c-11.125 0-20.176 9.051-20.176 20.176v38.226c0 4.174 3.383 7.558 7.557 7.558s7.557-3.384 7.557-7.558v-38.226c0-2.79 2.271-5.061 5.062-5.061h39.563c2.743 0 5.061 2.317 5.061 5.061v115.673c0 2.744-2.318 5.061-5.061 5.061h-39.563c-2.79 0-5.062-2.27-5.062-5.061v-42.669c0-4.174-3.383-7.558-7.557-7.558s-7.557 3.384-7.557 7.558v42.669c0 11.125 9.051 20.176 20.176 20.176h39.563c9.373 0 17.249-6.434 19.505-15.11 21.734.669 33.875 2.971 59.678 10.692l45.356 13.562c8.431 2.507 19.678 3.753 30.981 3.753 11.845 0 23.753-1.369 32.535-4.09 23.233-7.177 60.209-21.272 74.845-27.223l90.442-36.805c6.676-2.728 11.66-8.244 14.031-15.533 2.766-8.501 1.541-18.541-3.19-26.188-3.044-4.944-7.314-8.566-12.371-10.769zm-69.791-6.219c.34-.1.676-.225 1.005-.375l42.774-15.947c5.748-2.004 11.778.746 13.743 6.266 1.925 5.445-.941 11.443-6.389 13.37-.038.014-.077.028-.115.042l-108.844 40.494c-.004-2.355-.247-4.738-.774-7.11-1.066-4.804-3.137-9.1-5.984-12.662zm-15.516-32.303c2.808-.985 5.775-.865 8.361.34 2.534 1.181 4.444 3.281 5.372 5.889 1.539 4.371-.034 9.295-3.737 12l-75.083 27.992-30.587-10.547zm-79.17-6.479c2.53-.901 5.207-.79 7.539.319 2.217 1.054 3.889 2.901 4.706 5.202.823 2.32.683 4.839-.394 7.093-1.08 2.26-2.96 3.961-5.295 4.789-.17.061-.332.134-.496.205l-45.04 16.795-27.902-9.621zm165.664 77.282c-.688 2.116-2.179 4.912-5.364 6.213l-90.431 36.801c-14.422 5.865-50.82 19.742-73.617 26.784-14.534 4.504-40.113 4.637-54.73.292l-45.343-13.558c-26.971-8.07-40.364-10.588-63.34-11.311v-93.534c36.097-12.793 46.873-8.323 62.809-1.681 3.868 1.612 116.071 40.587 116.071 40.587.08.028.161.054.242.079 6.742 2.073 8.797 8.275 9.367 10.845.956 4.307.299 8.627-1.701 12.06-.019.032-.037.066-.055.098-.718 1.211-1.601 2.311-2.645 3.256-5.668 5.124-15.662 5.676-28.149 1.553l-63.802-21.05c-3.962-1.309-8.237.846-9.545 4.809-1.307 3.964.846 8.237 4.81 9.545l63.8 21.049c7.586 2.505 14.09 3.481 19.622 3.481 12.05 0 19.482-4.632 23.402-8.176 1.515-1.37 2.866-2.889 4.047-4.526l110.917-41.265c.104-.035.209-.062.312-.101 7.464-2.846 17.071-3.247 21.642 4.177 2.428 3.922 3.087 9.25 1.681 13.573z"/><path d="m501.607 112.467-54.113-101.765c-2.516-4.747-6.743-8.23-11.901-9.808-5.151-1.576-10.599-1.056-15.327 1.462l-34.842 18.518c-9.603 5.117-13.348 16.952-8.577 26.639-3.734 2.013-7.16 3.883-10.312 5.603-27.778 15.159-36.161 19.734-73.67 24.204-4.145.494-7.104 4.254-6.61 8.399.458 3.841 3.72 6.664 7.495 6.664.299 0 .6-.018.904-.054 40.402-4.815 50.945-10.569 79.121-25.945 3.105-1.694 6.475-3.533 10.139-5.509l35.906 67.541c-14.518 8.584-23.889 17.525-31.435 29.748-12.613 20.464-28.156 28.344-43.187 35.965-6.702 3.398-13.631 6.911-20.087 11.43l-61.177 42.888c-1.635 1.006-3.226 1.78-4.737 2.32-.129.038-.258.078-.385.124-2.424.807-4.633.999-6.459.509-2.467-.661-4.606-2.663-6.353-5.947-4.356-8.182 2.17-32.31 14.042-43.988l38.309-37.741c.158-.155.309-.318.452-.486 6.572-7.724 6.261-13.978 4.843-17.865-2.374-6.506-9.246-10.755-20.433-12.631-31.846-5.325-44.18 2.692-51.772 13.221-6.905-4.038-14.345-7.147-22.205-9.272-4.425-1.201-8.922-2.055-13.455-2.574l.812-1.504c13.63-25.314 34.179-32.736 62.917-36.508 4.139-.543 7.053-4.338 6.51-8.476-.544-4.139-4.342-7.053-8.477-6.51-28.162 3.696-56.649 11.624-74.255 44.322l-4.509 8.354c-17.589 1.351-34.761 7.934-48.78 18.796-15.719 12.178-26.767 28.783-31.952 48.016-13.03 48.275 15.643 98.151 63.918 111.181 7.888 2.127 15.844 3.15 23.694 3.149 34.089-.001 66.139-19.289 81.536-51.131 1.628-.744 3.263-1.614 4.9-2.634.115-.072.228-.147.34-.225l61.349-43.008c5.574-3.902 11.731-7.024 18.25-10.329 16.111-8.169 34.372-17.427 49.215-41.511 6.054-9.804 13.754-17.15 25.681-24.312l4.314 8.114c3.613 6.781 10.592 10.652 17.803 10.651 3.185 0 6.416-.756 9.42-2.348l34.798-18.51c4.746-2.517 8.229-6.744 9.807-11.902 1.575-5.15 1.055-10.593-1.465-15.325zm-220.89 35.184c5.569.934 7.792 2.269 8.527 2.843-.185.474-.641 1.368-1.755 2.714l-24.365 24.003c-5.171-8.525-11.733-16.166-19.366-22.562 4.604-6.316 12.456-11.096 36.959-6.998zm-114.815 149.545c-40.227-10.858-64.121-52.421-53.261-92.652 8.634-32.031 37.82-55.01 70.966-55.88 7.31-.183 14.595.695 21.677 2.617 8.75 2.366 16.862 6.18 24.108 11.338 9.355 6.658 17.117 15.453 22.603 25.558l-2.556 2.518c-14.779 14.536-25.561 45.371-16.781 61.863 4.728 8.881 11.19 12.212 15.779 13.443.047.013.096.021.143.033-17.701 26.767-50.874 39.74-82.678 31.162zm322.715-173.822c-.395 1.292-1.26 2.346-2.443 2.974l-34.798 18.51c-2.448 1.299-5.496.374-6.791-2.055l-54.121-101.808c-1.277-2.398-.33-5.504 2.061-6.778l34.841-18.517c.72-.383 1.509-.578 2.312-.578.497 0 1 .075 1.494.226 1.292.395 2.346 1.26 2.973 2.442l54.118 101.773c.001.002.002.003.003.005.619 1.166.744 2.517.351 3.806z"/></g></g></svg>